<?xml version="1.0" encoding="UTF-8"?><svg id="Layer_1" xmlns="http://www.w3.org/2000/svg" viewBox="0 0 1912.02 1405.36"><defs><style>.cls-1{fill:#f0f7e1;stroke:#8bcb96;stroke-miterlimit:10;}</style></defs><path class="cls-1" d="m1.1,667.76c163.03-.82,353.15,102.72,475.57,85.78,82.97-11.48,149.39-64.07,178.67-132.38,6.96-16.24-135.8-51.9-273.44-58.45-17.83-.85,290.33-28.49,287.78-46.92-15.83-114.36-137.79-179.5-279.79-158.11C237.28,380.67,101.13,552.85,1.1,667.76Z"/><path class="cls-1" d="m860.74,1048.03c107.83-50.28,265.47-39.65,341.46-88.23,51.5-32.93,79.49-88.06,78.06-142.28-.34-12.89-105.86,7.03-199.11,44.68-12.08,4.88,183.78-107.47,176.47-118.91-45.39-70.99-146.12-76.96-233.73-19.45-94.16,61.8-131.88,217.5-163.14,324.19Z"/><path class="cls-1" d="m918.34,1.15c80.24,87.85,229.86,138.59,281.36,212.64,34.9,50.18,39.56,111.84,17.41,161.35-5.27,11.77-95.04-47.16-166.67-117.74-9.28-9.14,128.39,169.83,117.25,177.58-69.18,48.11-164.47,14.92-223.27-71.83-63.19-93.23-38.21-251.47-26.07-361.99Z"/><ellipse class="cls-1" cx="1756.64" cy="479.07" rx="147.01" ry="162.36" transform="translate(175.76 1382.45) rotate(-45)"/><path class="cls-1" d="m1689.55,1281.15c44.58-75.37,144.74-134.44,170.69-195.53,17.59-41.41,11.67-86.53-11.74-118.86-5.56-7.69-61.37,48.28-102.35,109.91-5.31,7.98,66.94-141.67,57.74-145.58-57.07-24.24-120.73,14-150.04,85.35-31.49,76.68,10.32,186.92,35.69,264.71Z"/><path class="cls-1" d="m663.94,1336.07c-13.58,48.48-59.16,78.09-101.8,66.14-42.64-11.95-66.19-60.93-52.61-109.41,13.58-48.48,59.16-78.09,101.8-66.14,42.64,11.95,66.19,60.93,52.61,109.4Z"/></svg>