<?xml version="1.0" encoding="UTF-8"?>
<svg xmlns="http://www.w3.org/2000/svg" version="1.1" xmlns:xlink="http://www.w3.org/1999/xlink" viewBox="0 0 540 547.5">
  <!-- Generator: Adobe Illustrator 29.1.0, SVG Export Plug-In . SVG Version: 2.1.0 Build 142)  -->
  <defs>
    <style>
      .st0, .st1 {
        fill: #fff;
      }

      .st2 {
        fill: #568a4a;
      }

      .st1, .st3 {
        display: none;
      }

      .st4 {
        fill: none;
        stroke: #fff;
        stroke-miterlimit: 10;
        stroke-width: 1.8px;
      }
    </style>
  </defs>
  <g id="Pelvis" class="st3">
    <image class="st3" width="512" height="512" transform="translate(63.5 62.7) scale(.8)" xlink:href="C:\Users\Pushkar\Downloads\pelvis_954532.png"/>
    <g id="Layer_5">
      <path d="M450.6,433.8c-2.5,7-6.1,11.8-13.7,13.6-6.8,1.7-28.2,1.6-34.7-.9-13.6-5.3-9.8-21.3-10.3-32.5-.8-15.8-5.1-31-11.8-45.2-1,0-1.1,2.5-1.2,3.3-1.4,10.2-2.9,20.3-7.7,29.6-20.4,40.1-81.6,21.2-96.8-13.9l-1.4-.4c-11.2,26.1-46.1,43.2-73.6,34.6-23.4-7.4-28.9-31.6-31.8-53.2-7.1,13.8-11.2,29-12.1,44.6-.6,11.2,3.3,27.8-10.4,33.2-6.4,2.5-27.9,2.5-34.7.9-7.8-1.9-13-8-13.7-16-2.7-30.1,2.1-64.2,0-94.7,2.9-18.3,19.7-2.3,30-8s4.4-7.6,5.7-12.2,8.7-10.3,13.4-12.9c-13.2-19.2-29.4-36.3-38.8-57.9s-13.5-47.7-8.1-68.5c11-42.3,65.6-43.8,96.2-22.4,14.4,10.1,22.9,24,28.8,40.3l14.5,3.8v-4.4c-5.4-1.2-24-8.1-15.9-16,5.3-5.2,10.2,3.7,15.9,3.1v-34.2c-4-1.8-8.1-2.2-12-4.6s-8.1-6.3-4.3-11,10.4,3,16.3,2.8v-25.9c0-.9,2.6-5.3,3.5-6.2,7.4-8.3,19.2-2.8,28.6-2.4s23.3-4.1,30.5-.8c2.7,1.2,7.8,6.5,7.8,9.4v25.9c5.8.2,11.2-9.1,16.3-2.8,3.8,4.7-.3,8.5-4.3,11s-7.9,2.8-12,4.6v34.2c5.8.5,10.4-8.2,15.9-3.2,6.3,5.7-3.5,11.5-8.1,13.4s-7.7,2-7.9,2.6v4.4s14.5-3.8,14.5-3.8c6-16.5,14.6-30.5,29.2-40.6,30.6-21.2,84-19.4,95.6,22.1l2.3,11.2v16.6c-1.2,3.7-1,8.1-1.6,11.9-5.6,35.5-27,59.5-47.5,87.2,4.7,2.6,11.8,7.5,13.4,12.9s0,9.2,6.3,12.4c10.5,5.2,23.1-9.1,29.4,5.5v99.5Z"/>
      <path class="st0" d="M297.2,120.1c-.2-2.1,1.1-9.5-1.1-10.2s-13.7,1.8-17.8,2c-9.3.5-17.8-1.6-26.9-2l-1,1v9.2c15.2,4.8,31.5,4.8,46.8,0Z"/>
      <path class="st0" d="M297.3,116.9c-15.6,7.5-31.3,7.5-47,0v32.4c14.3,12,32.6,12,47,0v-32.4Z"/>
      <path class="st0" d="M206.1,272.1c-4.3-8.1-9-15-11.5-24-5.6-19.5-6.5-45.6,16.3-53.7-10-28.1-35.6-43.2-65.2-41.2-42.9,2.9-41.4,48.1-30.9,79.3,13.1,38.9,52.6,65.9,62.7,106.6,4.9,19.6-.6,40.7,10.6,59.2,14.1,23.2,47.8,15,64.1-1.4,4.4-4.4,14.5-18.5,15.4-24.3s-.9-18.6,0-26.8c-12.6-5-25.5-2.4-38.2-6.8-25.1-8.8-41.4-36.7-37.9-63.1s4.4-5.4,7.8-4.3,2.2,3.3,6.7.5Z"/>
      <path class="st0" d="M295.4,397c16.5,16.5,50.4,24.7,64.3.9,10.9-18.6,5.5-39.6,10.5-59.3,10.2-40,48.9-66.9,62.2-105,10.9-31.3,12.8-77.4-30.5-80.4-29.3-2-55.9,13.1-65,41.5,22.7,7.4,21.5,34.3,16.1,53.3s-7,15.9-11.6,23.7c4.1,3.4,4.4.5,6.7-.2s6.4,0,7.4,2.6.6,12.2.4,14.9c-1.6,23.6-20.4,46.5-43.6,51.7s-13.8.8-20.9,1.9-7.6,2.2-11.4,2.7c.8,8.4-1.4,19.8,0,27.8s10.9,19.4,15.3,23.8Z"/>
      <path class="st0" d="M297.3,159.5c-15.2,11.9-31.8,11.9-47,0v27.7c14.2,15.8,32.9,16.1,47,0v-27.7Z"/>
      <path class="st0" d="M297.3,185.1c-15.1,4.7-31.9,4.7-47,0v19c13.6,10.5,33.3,10.5,47,0v-19Z"/>
      <path class="st0" d="M212.8,206.7c-12.5,2.5-10,25.6-7.9,34.5,4.5,19.6,20.4,34.2,30.9,50.6,12.3,19.2,16.9,44.2,46.3,37.4,14.8-3.4,21.7-25,29.4-36.9,12.4-19.4,30.8-35.2,32.7-59.8,1.6-20.3-3-29.5-24.6-24.6-18.3,4.2-26.7,17.4-49,16-20.4-1.3-38.2-21.1-57.8-17.1Z"/>
      <path class="st0" d="M244.8,330.2l-7.7-12c-6.5-13-14.2-25.4-23.3-36.8l-10.3,4.7c.1,22.4,19,42.5,41.3,44.1Z"/>
      <path class="st0" d="M344.1,286.1l-10.3-4.7c-9.1,11.4-16.8,23.8-23.3,36.8l-7.7,12c22.3-1.6,41.2-21.7,41.3-44.1Z"/>
      <path class="st3" d="M153.5,314.3c-3.3,0-6.2,1.8-8.1,4.4,5.4,7.3,11.2,15.9,18.2,21.8s1.1,1.7,2.4,1.4c-2.9-9.8-7.7-18.7-12.5-27.6Z"/>
      <path class="st3" d="M381.5,341.9c1.3.3,1.6-.7,2.4-1.4,7-5.8,12.5-14.2,18-21.4.6-1.7-6.1-5.5-7.9-4.8-4.6,9-9.7,17.7-12.5,27.6Z"/>
      <path class="st0" d="M108.7,339.9v91.6c0,2.1,3,4.2,5.2,4.5,5.3.6,19.6.6,24.9,0s3.1-.7,4.1-2.1c2.1-2.9.8-15.9,1-20.4,1-20.3,6.5-41.6,18.7-58,0-1.3,9.6-5.6,9.3-7.3-1.1-8-7.2-22.9-11-29.5-1.1-.7-25.7,18.8-27.2,19.8-7.3,4.9-17.2,4.2-25.1,1.5Z"/>
      <path class="st0" d="M438.8,339.9c-7.9,2.7-17.8,3.4-25.1-1.5s-25.6-19.8-26.7-19c-8,8.8-9.7,20.1-12.3,29.3l10.2,6.8c12.2,16.4,17.7,37.7,18.7,58,.3,6.6-3,21.5,5.1,22.5,5.3.6,19.6.6,24.9,0s5.2-2.4,5.2-4.5v-91.6Z"/>
    </g>
    <g>
      <path class="st1" d="M483,463.2v18.8H63.9V62.7h419.1v109.5l-2.7-13.3c-13.8-49.2-76.8-51.2-113.1-26.2-17.2,11.9-27.5,28.5-34.5,48l-17.1,4.5v-5.2c.1-.7,7.4-2.4,9.3-3.1,5.5-2.2,17-9.1,9.6-15.9-6.5-6-12,4.3-18.9,3.7v-40.5c4.8-2.1,9.5-2.6,14.1-5.5s9.5-7.4,5.1-13c-6-7.5-12.4,3.5-19.2,3.3v-30.7c0-3.4-6.1-9.7-9.3-11.2-8.6-3.9-25.5,1.5-36.1,1s-25.1-7-33.9,2.8c-1,1.1-4.1,6.3-4.1,7.4v30.7c-6.9.2-13.2-10.8-19.2-3.3s.3,10,5.1,13,9.4,3.4,14.1,5.5v40.5c-6.8.6-12.6-9.9-18.8-3.7-9.6,9.4,12.4,17.6,18.9,19v5.2s-17.2-4.5-17.2-4.5c-7-19.3-17.1-35.7-34.1-47.7-36.2-25.4-100.8-23.5-113.7,26.5-6.4,24.5-.4,58,9.6,81,11.2,25.5,30.3,45.8,45.9,68.5-5.5,3.1-13.9,8.9-15.8,15.3s-.3,10.9-6.8,14.5c-12.2,6.8-32-12.2-35.5,9.5,2.5,36.1-3.3,76.5,0,112s7,16.7,16.2,18.9,33.4,1.9,41-1c16.2-6.3,11.5-25.9,12.3-39.2,1-18.4,5.9-36.5,14.3-52.7,3.4,25.6,9.9,54.2,37.6,63,32.4,10.2,73.7-10,87-40.9l1.7.5c17.9,41.5,90.3,63.9,114.5,16.4,5.6-11.1,7.4-22.9,9.1-35.1.1-.9.2-4,1.4-3.9,7.9,16.9,13,34.8,13.9,53.5.7,13.2-3.8,32.2,12.2,38.4,7.6,2.9,33,3,41,1,8.9-2.2,13.2-7.8,16.2-16.1Z"/>
      <path class="st1" d="M483,345.5c-7.4-17.3-22.3-.3-34.8-6.5-7.4-3.7-5.7-8.5-7.5-14.6s-10.2-12.2-15.8-15.3c24.2-32.8,49.5-61.2,56.1-103.2.7-4.5.5-9.7,1.9-14.1v153.7Z"/>
      <path class="st1" d="M193.8,271.9c-5.4,3.2-5.1.3-7.9-.6-4.1-1.3-8.7.7-9.3,5.1-4.1,31.2,15,64.2,44.8,74.6,15.1,5.3,30.3,2.1,45.2,8.1-1.1,9.7,1.4,22.4,0,31.7s-13,23.6-18.2,28.8c-19.3,19.3-59.2,29.1-75.8,1.7-13.2-21.8-6.7-46.8-12.5-70-12-48.1-58.7-80-74.2-126-12.4-36.9-14.2-90.4,36.6-93.9s65.3,15.4,77.1,48.7c-26.9,9.5-25.9,40.4-19.3,63.5,3,10.6,8.6,18.8,13.7,28.4ZM197.5,361.5c-9.2.5-7.4,11.7-7,18.8.8,12.7,5,37.2,21.6,37.1s24.8-5.8,30.4-16.3c15.3-28.7-23.3-40.8-45-39.6Z"/>
      <path class="st1" d="M299.5,419.6c-5.2-5.2-16.8-21.2-18.1-28.1s.8-22.9-.1-32.8c4.5-.7,9-2.5,13.5-3.3,8.3-1.3,16.4-.4,24.7-2.3,27.5-6.1,49.7-33.2,51.6-61.1.2-3.1.5-15.4-.5-17.6s-5.8-4-8.8-3.1-3,4.2-7.9.2c5.4-9.2,10.7-17.6,13.7-28,6.4-22.5,7.8-54.3-19-63.1,10.7-33.6,42.2-51.5,76.9-49.1,51.3,3.5,49,58,36.1,95.1-15.7,45.1-61.5,76.9-73.6,124.2-6,23.3.5,48.1-12.4,70.1-16.5,28.1-56.6,18.4-76.1-1.1ZM350.5,361.3c-16.7.5-51,6.2-48.8,29.5,1.6,16.7,20.4,28,36,26.5s16.8-18.6,18.5-28.9c.5-3.2,0-9.1,1-12.1s9.2-2.3,6.6-10.1-8.5-5-13.4-4.9Z"/>
      <path class="st1" d="M201.8,194.5c23.2-4.7,44.3,18.8,68.4,20.3,26.3,1.6,36.3-14,57.9-18.9,25.5-5.8,31,5.1,29.1,29.1-2.3,29.1-24.1,47.8-38.7,70.8-9,14.2-17.2,39.6-34.7,43.7-34.8,8.1-40.2-21.5-54.8-44.2-12.4-19.4-31.2-36.8-36.5-59.9-2.4-10.6-5.4-37.9,9.3-40.8ZM231.9,228.9c-8.8.5-8.5,13-1,13.7,10.8,1,9.7-14.2,1-13.7ZM315.2,228.8c-9,.5-8.4,15.7,2.3,13.7,7.2-1.3,6.4-14.1-2.3-13.7ZM244.2,250c-7.7,1.7-6.1,14.5,2.2,13.7,9.6-.9,7.8-15.9-2.2-13.7ZM299.8,250c-6.3,1.4-6.8,12.1.8,13.6s10.6-16.1-.8-13.6ZM248,289.6c6.2,6.2,16.7-3.4,9.5-10s-15.4,4.1-9.5,10ZM299.7,289.6c6.2-6.2-3.4-16.7-10-9.6-6.3,6.9,4.1,15.5,10,9.6ZM258.9,305.6c-7.2.9-8,12-.8,13.6,11,2.4,11.2-14.9.8-13.6ZM287.5,305.6c-10.6.9-7.2,17.3,3.3,13.1,6.7-2.7,3.9-13.7-3.3-13.1Z"/>
      <path class="st1" d="M78.6,352c9.4,3.2,21.1,4,29.7-1.8s7.4-8.1,8.7-7.2c4.4,7.8,11.4,14.8,18,20.8s7.4,5,7.4,6.5c-14.4,19.4-20.9,44.6-22.1,68.6-.3,5.3,1.3,20.7-1.2,24.1s-2.9,2.3-4.9,2.5c-6.3.7-23.2.7-29.4,0s-6.1-2.9-6.1-5.3v-108.3Z"/>
      <path class="st1" d="M469.1,352v108.3c0,2.4-3.5,5-6.1,5.3-6.3.7-23.2.7-29.4,0-9.6-1.1-5.7-18.9-6.1-26.6-1.2-24-7.7-49.2-22.1-68.6l.4-1.2c9.5-7.1,18.9-15.8,25-26.1,1.3-.9,6.9,6,8.7,7.2,8.6,5.7,20.3,5,29.7,1.8Z"/>
      <path class="st1" d="M301.6,168.9v22.5c-16.1,12.4-39.4,12.4-55.5,0v-22.5c17.9,5.6,37.7,5.6,55.5,0Z"/>
      <path class="st1" d="M239.5,340.6c-26.4-1.9-48.7-25.7-48.9-52.2l12.1-5.5c10.8,13.5,19.9,28.1,27.6,43.5l9.1,14.2Z"/>
      <path class="st1" d="M357,288.4c-.2,26.5-22.5,50.3-48.9,52.2l9.1-14.2c7.7-15.4,16.8-30.1,27.6-43.5l12.1,5.5Z"/>
      <path class="st1" d="M301.6,106.8v19.2c-17,7.1-38.6,7.1-55.5,0v-19.2c18.5,4.4,37.1,4.4,55.5,0Z"/>
      <path class="st1" d="M301.6,141.2v12.7c-16.7,7.3-38.7,7.2-55.5,0v-12.7c17.9,5.5,37.6,5.5,55.5,0Z"/>
      <path class="st1" d="M301.5,92c-18.1,5.6-37.3,5.6-55.4,0v-10.8s1.3-1.2,1.3-1.2c10.8.4,20.8,2.9,31.8,2.4s17.6-3.5,21.1-2.4,1,9.6,1.3,12.1Z"/>
      <path class="st1" d="M131.6,321.8c5.7,10.5,11.4,21,14.8,32.6-1.5.4-1.9-.9-2.9-1.6-8.2-6.9-15.1-17.2-21.5-25.8,2.2-3.1,5.7-5.2,9.6-5.2Z"/>
      <path class="st1" d="M401.3,354.5c3.3-11.6,9.3-22,14.8-32.6,2.1-.8,10.1,3.6,9.4,5.6-6.5,8.5-13,18.5-21.3,25.4s-1.3,2-2.9,1.6Z"/>
      <path class="st3" d="M197.5,361.5c21.7-1.2,60.3,10.9,45,39.6s-18.9,16.2-30.4,16.3c-16.6,0-20.8-24.4-21.6-37.1-.4-7.1-2.2-18.3,7-18.8ZM204.4,375.7c.9,9.3,1.6,19.3,6.5,27.4,6-.2,13.9-1.7,18-6.6,11.8-14.3-14.6-20.5-24.5-20.9Z"/>
      <path class="st3" d="M350.5,361.3c4.9-.1,11.5-1,13.4,4.9s-6.1,8.4-6.6,10.1c-1,2.9-.5,8.8-1,12.1-1.7,10.3-5.8,27.7-18.5,28.9s-34.5-9.8-36-26.5c-2.2-23.3,32.1-29,48.8-29.5ZM343.3,375.7c-9.9.3-36.3,6.5-24.5,20.9,4,4.9,12,6.4,18,6.6,5-8.2,5.7-18.1,6.5-27.4Z"/>
      <path class="st3" d="M244.2,250c10-2.2,11.8,12.8,2.2,13.7-8.3.8-9.9-12-2.2-13.7Z"/>
      <path class="st3" d="M299.8,250c11.5-2.5,11.4,15.6.8,13.6s-7.2-12.2-.8-13.6Z"/>
      <path class="st3" d="M248,289.6c-5.9-5.9,2.7-16.2,9.5-10s-3.4,16.1-9.5,10Z"/>
      <path class="st3" d="M299.7,289.6c-5.9,5.9-16.2-2.7-10-9.6,6.5-7.1,16.1,3.4,10,9.6Z"/>
      <path class="st3" d="M258.9,305.6c10.4-1.4,10.2,16-.8,13.6-7.2-1.6-6.3-12.7.8-13.6Z"/>
      <path class="st3" d="M287.5,305.6c7.1-.6,10,10.4,3.3,13.1-10.5,4.2-13.9-12.2-3.3-13.1Z"/>
      <path class="st3" d="M231.9,228.9c8.7-.5,9.8,14.7-1,13.7s-7.9-13.3,1-13.7Z"/>
      <path class="st3" d="M315.2,228.8c8.7-.5,9.4,12.3,2.3,13.7-10.7,2-11.3-13.2-2.3-13.7Z"/>
      <path class="st1" d="M204.4,375.7c9.9.3,36.3,6.5,24.5,20.9-4,4.9-12,6.4-18,6.6-5-8.2-5.7-18.1-6.5-27.4Z"/>
      <path class="st1" d="M343.3,375.7c-.9,9.3-1.6,19.3-6.5,27.4-6-.2-13.9-1.7-18-6.6-11.8-14.3,14.6-20.5,24.5-20.9Z"/>
    </g>
  </g>
  <g id="Layer_1" class="st3">
    <image width="130" height="130" transform="translate(205 208.8)" xlink:href="icon_19_pedi_svg-1.png"/>
  </g>
  <g id="Layer_2" class="st3">
    <path class="st4" d="M264.9,256.7v-21.3c4.2,0,8.4,0,12.7.1v21.8"/>
    <path class="st4" d="M259.8,256.3c1.6,0,3.7,0,4.6.4,1.5.7,2,2.4,2.6,2.9.4.3,1.1.7,1.3,1,1.8,0,3.4,0,5.2,0,.6-.3,1.4-1.5,2.5-2.2,2-1.2,1.7-1.4,2.7-1.9,1.8-.8,4.3-.2,6.1.8,1,.5,1.6,1.2,2,1.7,0,2,0,4,.1,6,0,1.2-.9,2.8-2,4.6s-1.5,2.7-3.7,6.1-1.6,2.8-3,5.3c-1.8,3.1-2.1,3.8-3.1,4.1-2.7.8-5.3.8-7.7.4s-1.9-2.1-4-5.4c-1.3-1.9-1.5-2.4-3.5-5.5-1.8-2.9-2.4-3.8-3-4.6-1.1-1.6-1.8-3-2.2-4.1-.8-2.5-.4-4.9-.3-7.6.2-.3.7-1.5,2-2.1,1.6-.8,3.2-.3,3.5-.2Z"/>
  </g>
  <g id="Pediatric">
    <ellipse class="st2" cx="271.3" cy="274.6" rx="259.6" ry="261.3"/>
    <image class="st3" width="512" height="512" transform="translate(77.1 89.7) scale(.8)" xlink:href="daughter_4397535.png"/>
    <g>
      <path class="st0" d="M155.2,89.3c2.7,1.1,5.7,1.3,8.6,2.2,19.5,6.3,33.4,25,33.3,45.7,41.6-31.8,102.2-31.9,143.7,0-.3-20.4,14-39.5,33.3-45.7,2.9-.9,5.9-1.1,8.6-2.2,3.9.3,8.2-.4,12,0,22,2.4,40.4,22.8,41.9,44.5s-1.1,44.3-.2,65.7c-2.3,8.5-10,11.8-18,7.9s-25.1-18.2-28-18.5l-7.4,6.7c8.1,27,7.5,54.9-2.6,81.2-8.8,23-25.2,41.8-44.9,56.1,37.5,20.2,65,55.7,73.9,97.5,1.9,8.8,4.3,23.2,3.2,31.9s-5.8,10.1-11.5,10.2H137.6c-12-.9-12.7-9.1-12.4-19.1,1.7-49.9,33.5-97.4,77.1-120.4-24.6-17.5-43-42.4-49.9-72.1s-4-43.6,2.4-65.2l-7.4-6.7c-13.3,5.5-36.5,34.6-46,10.6.9-21.4-1.8-44.5-.2-65.7,1.6-21.6,20-42.1,41.9-44.5h12ZM125.2,133.8v40.8c8.8-4.4,19.7-18,30.2-11.9s9.1,9.8,10.2,9.3l5.2-8.1c-.3-1.8-17.3-16.3-19.7-20-6.7-10.2,3.9-22.6,15.3-17.6,2.6,1.2,3.5,3.7,6,4.5-4.3-13.2-17.6-20.9-31.2-16.2-7.6,2.6-14.9,11.2-15.9,19.2ZM412.7,174.6v-40.8c0-1.8-2.3-6.8-3.3-8.6-10.4-18.6-37.9-14.4-43.8,5.6l7.5-5.3c11.7-2.8,20.3,8.9,13.1,19-2.4,3.4-18.7,17.8-18.9,19.3l5.2,8.1c1.1.5,8.3-8.1,10.2-9.3,10.5-6.2,21.4,7.5,30.2,11.9ZM245,170.5c.7,4.3-.5,10.1,0,14.6h47.9v-13.8c0-2.9,4.5-8,7.3-9.2,11.7-4.7,16.3,7.5,22.6,14.4s7.2,6.8,10.9,10.1l26.6,17.2c-17-51.6-72.9-79.7-124.6-60.6s-49.5,33-57.6,60.6c13.6-8,27.6-16.6,38.2-28.4s8.2-14.5,17.2-14.3c5,.1,10.8,4.5,11.6,9.4ZM315.4,202.3c-1.8,4.8-5.9,6.4-10.8,6.8-23.4,1.7-49-1.4-72.6,0-4.5-.5-7.6-2.9-9.7-6.7-6.4,5.8-13.5,10.6-20.7,15.3s-16.3,11.1-22.6,14-3.7,1.4-5.7,1.4c0,64.3,62.7,110.7,124.6,91.3,39.2-12.3,67-49.5,67-90.9-8.6-2.8-17-8.6-24.7-13.6s-16.9-11.2-24.8-17.5ZM388,448.5c-3.9-42.8-32.2-81.1-71.5-98-.6,0-3.5,9.1-4.2,10.7-14.6,31.4-57.6,37-80,10.6-5.4-6.4-8-13.5-10.9-21.2-39.1,16.7-67.8,55.3-71.5,98h238ZM289.9,351.2c-9.1.8-18.1,1.9-27.3,1.5s-14.6-2.2-14.6-1.1c7.3,17.3,35.1,17.3,41.9-.4Z"/>
      <path class="st0" d="M243.3,257.1c3.2-.5,6.4,0,9.1,1.7,6.6,4.3,4.8,16.3,16.8,16,11.6-.3,9.6-11.7,16.2-16s20.1,2.1,18.5,12.5c-.6,4.1-4.4,10.7-7,14-16.7,21-50.6,16.2-61.1-8.4s-2.4-18.2,7.4-19.8Z"/>
      <path class="st0" d="M230.6,221.2c16.8-2.7,19.3,21.2,4.9,23.6-16.8,2.7-19.3-21.2-4.9-23.6Z"/>
      <path class="st0" d="M302.4,221.2c16.8-2.7,19.3,21.2,4.9,23.6s-19.3-21.2-4.9-23.6Z"/>
    </g>
  </g>
</svg>