<?xml version="1.0" encoding="UTF-8"?><svg id="Layer_1" xmlns="http://www.w3.org/2000/svg" viewBox="0 0 1756.81 970.63"><defs><style>.cls-1{fill:#f0f7e1;stroke:#f0f7e1;}.cls-1,.cls-2{stroke-miterlimit:10;}.cls-2{fill:none;stroke:#8bcb96;}</style></defs><path class="cls-1" d="m129.78,79.35c-18.99-.23-41.05,12.27-55.32,10.1-9.67-1.47-17.45-7.96-20.92-16.33-.82-1.99,15.78-6.24,31.8-6.92,2.08-.09-33.84-3.72-33.56-5.97,1.75-13.97,15.9-21.84,32.46-19.11,17.79,2.94,33.79,24.1,45.54,38.24Z"/><path class="cls-2" d="m1470.61,400.55c9.65,9.85,15.87,28.41,23.91,34.7,5.45,4.26,11.9,4.74,16.93,1.89,1.19-.68-5.51-11.76-13.31-20.57-1.01-1.14,18.5,15.71,19.24,14.31,4.59-8.7.53-20.52-8.87-27.7-10.11-7.72-26.45-4.33-37.89-2.63Z"/><ellipse class="cls-2" cx="581.76" cy="159.73" rx="16.14" ry="17.82" transform="translate(57.45 458.15) rotate(-45)"/><path class="cls-2" d="m808.59,349.09c1.48,9.76-3.18,22.11-1.07,29.28,1.43,4.86,5.22,8.35,9.65,9.47,1.05.27,1.98-8.62,1.17-16.92-.1-1.08,4.29,17.12,5.39,16.8,6.85-2.01,9.76-9.92,7.2-18.23-2.74-8.93-14.45-15.48-22.35-20.4Z"/><path class="cls-1" d="m286.12,340.12c-26.51,5.07-53.66,28.76-74.15,29.79-13.89.7-26.56-6.12-33.77-16.79-1.71-2.54,20.19-13.17,42.31-18.68,2.86-.71-48.17,4.44-48.42,1.22-1.54-19.95,15.93-34.92,39.76-35.83,25.61-.97,53.9,23.95,74.27,40.29Z"/><path class="cls-2" d="m800.67,664.52c-6.57-28.3-34-56.04-35.85-78.12-1.25-14.96,5.96-29.13,17.68-37.64,2.79-2.02,15.42,20.93,22.34,44.46.9,3.05-6.58-51.76-2.99-52.25,22.29-3.02,39.65,14.84,41.46,40.54,1.94,27.61-25.02,59.89-42.64,83.02Z"/><path class="cls-2" d="m1052.93,104.14c7.44,20.9,1.63,50.73,9.47,65.57,5.32,10.06,15.59,15.85,26.37,16.04,2.56.05,1.09-20.15-4.18-38.18-.68-2.33,16.99,35.81,19.43,34.52,15.14-8,18.68-27.07,9.34-44.2-10.04-18.41-40.02-26.91-60.43-33.77Z"/><path class="cls-2" d="m1265.03,405.83c-24.45,11.42-44.97,41.04-64.58,47.07-13.29,4.09-27.25.59-36.86-8-2.28-2.04,16.34-17.72,36.43-28.49,2.6-1.4-45.61,16.12-46.64,13.06-6.38-18.96,6.88-37.76,29.76-44.48,24.59-7.22,58.13,10,81.88,20.84Z"/><path class="cls-2" d="m1152.03,845.83c-24.45,11.42-44.97,41.04-64.58,47.07-13.29,4.09-27.25.59-36.86-8-2.28-2.04,16.34-17.72,36.43-28.49,2.6-1.4-45.61,16.12-46.64,13.06-6.38-18.96,6.88-37.76,29.76-44.48,24.59-7.22,58.13,10,81.88,20.84Z"/><path class="cls-2" d="m1382.64,244.02c-21.52-7.35-51.29-.61-66.72-8.53-10.45-5.36-16.88-16.01-17.68-27.32-.19-2.69,20.28-1.58,38.77,3.56,2.39.67-37.1-17.05-35.94-19.64,7.22-16.05,26.27-20.19,44.08-10.76,19.14,10.14,29.42,41.41,37.49,62.68Z"/><path class="cls-2" d="m418.75,540c-22.03,5.64-43.24,27.6-60.48,29.44-11.68,1.24-22.89-4.15-29.76-13.16-1.63-2.14,16.1-12.44,34.38-18.27,2.37-.76-40.38,6.07-40.82,3.27-2.76-17.39,10.91-31.28,30.97-33.16,21.57-2.01,47.3,18.51,65.71,31.88Z"/><ellipse class="cls-2" cx="617.66" cy="343.9" rx="23.27" ry="25.7" transform="translate(-62.27 537.48) rotate(-45)"/><ellipse class="cls-2" cx="1570.51" cy="147.49" rx="17.01" ry="18.79" transform="translate(355.7 1153.72) rotate(-45)"/><path class="cls-2" d="m551.51,717.49c6.93,19.48,1.52,47.28,8.83,61.11,4.96,9.37,14.53,14.77,24.58,14.95,2.39.04,1.02-18.78-3.9-35.58-.64-2.18,15.83,33.38,18.11,32.17,14.11-7.46,17.41-25.23,8.71-41.19-9.36-17.15-37.29-25.08-56.32-31.47Z"/><path class="cls-2" d="m1539.46,653.2c9.65,9.85,15.87,28.41,23.91,34.7,5.45,4.26,11.9,4.74,16.93,1.89,1.19-.68-5.51-11.76-13.31-20.57-1.01-1.14,18.5,15.71,19.24,14.31,4.59-8.7.53-20.52-8.87-27.7-10.11-7.72-26.45-4.33-37.89-2.63Z"/><path class="cls-2" d="m842.09,91.06c-9.15-7.38-14.99-21.99-22.62-26.6-5.17-3.12-11.31-3.14-16.1-.56-1.14.61,5.19,9.17,12.58,15.82.96.86-17.54-11.6-18.25-10.43-4.4,7.28-.59,16.57,8.33,21.82,9.59,5.64,25.16,1.98,36.06-.05Z"/><path class="cls-2" d="m1466.64,751.02c-21.52-7.35-51.29-.61-66.72-8.53-10.45-5.36-16.88-16.01-17.68-27.32-.19-2.69,20.28-1.58,38.77,3.56,2.39.67-37.1-17.05-35.94-19.64,7.22-16.05,26.27-20.19,44.08-10.76,19.14,10.14,29.42,41.41,37.49,62.68Z"/><path class="cls-2" d="m215.64,725.02c-21.52-7.35-51.29-.61-66.72-8.53-10.45-5.36-16.88-16.01-17.68-27.32-.19-2.69,20.28-1.58,38.77,3.56,2.39.67-37.1-17.05-35.94-19.64,7.22-16.05,26.27-20.19,44.08-10.76,19.14,10.14,29.42,41.41,37.49,62.68Z"/><path class="cls-2" d="m786.64,937.02c-21.52-7.35-51.29-.61-66.72-8.53-10.45-5.36-16.88-16.01-17.68-27.32-.19-2.69,20.28-1.58,38.77,3.56,2.39.67-37.1-17.05-35.94-19.64,7.22-16.05,26.27-20.19,44.08-10.76,19.14,10.14,29.42,41.41,37.49,62.68Z"/><path class="cls-2" d="m276.6,958.91c-15.26-11.39-40.72-13.67-50.97-23.93-6.95-6.96-9.33-17.1-7.07-26.31.54-2.19,16.57,3.95,29.98,12.8,1.74,1.15-25.18-23.12-23.59-24.88,9.88-10.94,26.12-9.34,37.89,2.75,12.65,13,12.81,40.55,13.77,59.58Z"/><path class="cls-2" d="m1066.28,243.63c-12.58,16.71-15.21,44.68-26.54,55.9-7.68,7.61-18.83,10.18-28.95,7.65-2.41-.6,4.42-18.19,14.21-32.88,1.27-1.9-25.52,27.57-27.45,25.81-11.97-10.91-10.14-28.74,3.2-41.62,14.34-13.84,44.62-13.88,65.53-14.85Z"/><ellipse class="cls-2" cx="1329.25" cy="533.75" rx="34.04" ry="37.59" transform="translate(11.91 1096.26) rotate(-45)"/><ellipse class="cls-2" cx="452.61" cy="815.37" rx="28.99" ry="32.01" transform="translate(-443.99 558.87) rotate(-45)"/><ellipse class="cls-2" cx="55.61" cy="454.37" rx="28.99" ry="32.01" transform="translate(-305 172.41) rotate(-45)"/><ellipse class="cls-1" cx="322.61" cy="106.37" rx="28.99" ry="32.01" transform="translate(19.27 259.28) rotate(-45)"/><ellipse class="cls-2" cx="1412.69" cy="926.31" rx="41.6" ry="45.95" transform="translate(-241.23 1270.24) rotate(-45)"/><path class="cls-2" d="m995.49,469.19c-20.38-6.96-48.58-.58-63.19-8.08-9.9-5.08-15.98-15.17-16.75-25.88-.18-2.55,19.21-1.5,36.72,3.38,2.27.63-35.14-16.15-34.04-18.6,6.84-15.21,24.88-19.12,41.75-10.19,18.13,9.6,27.87,39.22,35.51,59.37Z"/><path class="cls-2" d="m1382.15,1.16c10.86,16.39,34.8,27.49,41.19,41.05,4.33,9.19,3.11,19.87-2.31,28.04-1.29,1.94-14.72-9.62-24.67-22.9-1.29-1.72,16.41,31.26,14.25,32.42-13.42,7.18-28.64-.04-35.86-15.9-7.76-17.05,1.7-43.88,7.4-62.71Z"/><path class="cls-2" d="m1737.64,328.02c-21.52-7.35-51.29-.61-66.72-8.53-10.45-5.36-16.88-16.01-17.68-27.32-.19-2.69,20.28-1.58,38.77,3.56,2.39.67-37.1-17.05-35.94-19.64,7.22-16.05,26.27-20.19,44.08-10.76,19.14,10.14,29.42,41.41,37.49,62.68Z"/><path class="cls-2" d="m1623.64,937.02c-21.52-7.35-51.29-.61-66.72-8.53-10.45-5.36-16.88-16.01-17.68-27.32-.19-2.69,20.28-1.58,38.77,3.56,2.39.67-37.1-17.05-35.94-19.64,7.22-16.05,26.27-20.19,44.08-10.76,19.14,10.14,29.42,41.41,37.49,62.68Z"/><path class="cls-2" d="m1715.92,678.58c2.8,18-4.79,42.7-.99,55.63,2.57,8.76,9.14,14.24,16.72,15.04,1.8.19,3.13-16.86,1.52-32.31-.21-2,7.79,31.08,9.66,30.15,11.61-5.82,16.35-21.63,11.76-36.57-4.93-16.05-25.07-24.97-38.67-31.94Z"/><path class="cls-2" d="m632.9,23.44c13.66,13.93,22.45,40.18,33.82,49.08,7.7,6.03,16.83,6.7,23.94,2.68,1.69-.96-7.79-16.64-18.82-29.09-1.43-1.61,26.16,22.22,27.21,20.24,6.49-12.31.76-29.03-12.55-39.18-14.3-10.91-37.41-6.12-53.59-3.72Z"/><path class="cls-2" d="m527.46,479.2c9.65,9.85,15.87,28.41,23.91,34.7,5.45,4.26,11.9,4.74,16.93,1.89,1.19-.68-5.51-11.76-13.31-20.57-1.01-1.14,18.5,15.71,19.24,14.31,4.59-8.7.53-20.52-8.87-27.7-10.11-7.72-26.45-4.33-37.89-2.63Z"/><path class="cls-2" d="m1.1,843.02c17.48,10.76,33.12,35.33,46.99,41.53,9.4,4.2,18.89,2.57,25.12-3.34,1.48-1.41-12.17-15.01-26.6-24.93-1.87-1.28,32.36,16.05,32.92,13.76,3.5-14.22-6.6-29.83-22.76-36.83-17.37-7.51-39.75,3.24-55.67,9.81Z"/><path class="cls-2" d="m1019.21,630.25c16.31,8.95,31.59,30.48,44.43,35.47,8.7,3.38,17.22,1.47,22.59-4.17,1.28-1.34-11.71-13.04-25.22-21.36-1.75-1.08,30.02,13.06,30.43,10.96,2.52-13.03-7.33-26.71-22.28-32.31-16.07-6.01-35.84,4.74-49.95,11.41Z"/></svg>