<?xml version="1.0" encoding="UTF-8"?><svg id="Layer_1" xmlns="http://www.w3.org/2000/svg" viewBox="0 0 1575.97 1183.19"><defs><style>.cls-1{fill:#dfefbf;}</style></defs><path class="cls-1" d="m620.64,187.44C462.54,385.71,151.59,514.97,52.64,679.79c-67.06,111.7-68.18,243.49-14,345.6,12.88,24.28,195.39-113.85,337.65-274.18,18.43-20.77-248.81,379.48-224,394.37,153.97,92.44,351.9,8.26,464.55-184.61,121.08-207.29,45.38-540.24,3.8-773.53Z"/><path class="cls-1" d="m1352.52,0c45.73,163.68,203.82,324.73,221.79,452.31,12.18,86.46-44.09,221.27-119.25,240.06-16,4-40-70-88-208-6.11-17.58,68,219,54,224-113.34,40.48-249.32-81.58-268.41-230.05-20.52-159.57,113.23-345.23,199.88-478.32Z"/></svg>