<?xml version="1.0" encoding="UTF-8"?><svg id="Layer_1" xmlns="http://www.w3.org/2000/svg" viewBox="0 0 1694.22 1123.14"><defs><style>.cls-1{fill:#f0f7e1;}</style></defs><path class="cls-1" d="m620.64,127.39C462.54,325.66,151.59,454.92,52.64,619.74c-67.06,111.7-68.18,243.49-14,345.6,12.88,24.28,195.39-113.85,337.65-274.18,18.43-20.77-248.81,379.48-224,394.37,153.97,92.44,351.9,8.26,464.55-184.61,121.08-207.29,45.38-540.24,3.8-773.53Z"/><path class="cls-1" d="m1200.42,0c126.88,138.92,363.5,219.16,444.92,336.26,55.19,79.36,62.57,176.86,27.53,255.15-8.33,18.61-150.29-74.58-263.56-186.2-14.68-14.46,203.03,268.56,185.41,280.81-109.39,76.08-260.09,23.59-353.07-113.59-99.92-147.44-60.42-397.67-41.23-572.43Z"/></svg>