<?xml version="1.0" encoding="UTF-8"?><svg id="Layer_1" xmlns="http://www.w3.org/2000/svg" viewBox="0 0 1472.38 1027.46"><defs><style>.cls-1{fill:none;stroke:#8bcb96;stroke-miterlimit:10;}</style></defs><path class="cls-1" d="m602.33,417.56c8.03,3.87,14.88,13.52,21.3,15.63,4.35,1.43,8.88.44,11.95-2.21.73-.63-5.43-5.81-12.03-9.43-.86-.47,14.95,5.57,15.26,4.6,1.97-6-2.46-12.12-9.95-14.48-8.05-2.53-18.87,2.66-26.54,5.9Z"/><path class="cls-1" d="m628.7,451.52c6,.54,12.64,5.02,17.2,4.82,3.09-.13,5.72-1.83,7.04-4.25.31-.57-4.82-2.39-9.86-3.11-.65-.09,10.78-.03,10.76-.72-.18-4.26-4.44-7.09-9.74-6.8-5.7.31-11.31,6.17-15.4,10.05Z"/><path class="cls-1" d="m660.01,462.31c2.66.24,5.59,2.22,7.61,2.13,1.37-.06,2.53-.81,3.11-1.88.14-.25-2.13-1.06-4.36-1.38-.29-.04,4.77-.01,4.76-.32-.08-1.89-1.97-3.14-4.31-3.01-2.52.14-5.01,2.73-6.81,4.45Z"/><path class="cls-1" d="m654.94,403.94c3.76,5.86,11.89,10.26,14.13,15.04,1.52,3.24,1.18,6.84-.59,9.48-.42.63-5.02-3.66-8.45-8.44-.45-.62,5.73,11.06,5.01,11.4-4.46,2.09-9.63-.76-12.17-6.34-2.73-6,.28-14.88,2.06-21.14Z"/><path class="cls-1" d="m725.96,442.53c2.58,5.07,1.27,10.91-2.92,13.04-4.19,2.14-9.69-.24-12.27-5.31s-1.27-10.91,2.92-13.04c4.19-2.14,9.69.24,12.27,5.31Z"/><path class="cls-1" d="m914.43,339.32c-7.74,2.28-15.27,9.9-21.32,10.84-4.1.64-7.99-.91-10.35-3.73-.56-.67,5.7-4.39,12.13-6.66.83-.29-14.17,2.78-14.31,1.87-.88-5.65,3.97-10.47,11.01-11.48,7.56-1.08,16.46,5.14,22.84,9.16Z"/><path class="cls-1" d="m885.9,365.79c-5.44-.4-12.02,2.63-16.07,1.79-2.74-.57-4.84-2.48-5.67-4.82-.2-.56,4.65-1.43,9.26-1.33.6.01-9.63-1.61-9.5-2.22.79-3.78,5.01-5.68,9.7-4.65,5.04,1.11,9.2,7.17,12.28,11.23Z"/><path class="cls-1" d="m856.35,370.84c-2.41-.18-5.32,1.16-7.11.79-1.21-.25-2.14-1.1-2.51-2.13-.09-.25,2.06-.63,4.1-.59.26,0-4.26-.71-4.2-.98.35-1.67,2.21-2.51,4.29-2.06,2.23.49,4.07,3.17,5.43,4.97Z"/><path class="cls-1" d="m869.44,319.45c-4.22,4.68-12.13,7.42-14.83,11.36-1.83,2.67-2.06,5.94-.86,8.55.28.62,5.02-2.53,8.79-6.3.49-.49-6.74,9.04-6.15,9.45,3.68,2.52,8.72.73,11.8-3.88,3.31-4.96,1.93-13.33,1.25-19.18Z"/><path class="cls-1" d="m800.35,343.51c-3.05,4.15-2.73,9.56.7,12.08,3.43,2.52,8.69,1.2,11.74-2.95,3.05-4.15,2.73-9.56-.7-12.08s-8.69-1.2-11.74,2.95Z"/><path class="cls-1" d="m1.1,254.51c33.72-.17,73.04,21.25,98.36,17.74,17.16-2.37,30.9-13.25,36.95-27.38,1.44-3.36-28.09-10.73-56.56-12.09-3.69-.18,60.05-5.89,59.52-9.7-3.27-23.65-28.5-37.13-57.87-32.7-31.56,4.75-59.72,40.37-80.41,64.13Z"/><path class="cls-1" d="m143.9,313.16c22.3-10.4,54.91-8.2,70.62-18.25,10.65-6.81,16.44-18.21,16.14-29.43-.07-2.67-21.9,1.45-41.18,9.24-2.5,1.01,38.01-22.23,36.5-24.59-9.39-14.68-30.22-15.92-48.34-4.02-19.47,12.78-27.28,44.98-33.74,67.05Z"/><path class="cls-1" d="m155.82,96.64c16.6,18.17,47.54,28.66,58.19,43.98,7.22,10.38,8.18,23.13,3.6,33.37-1.09,2.43-19.66-9.75-34.47-24.35-1.92-1.89,26.56,35.13,24.25,36.73-14.31,9.95-34.02,3.09-46.18-14.86-13.07-19.28-7.9-52.01-5.39-74.87Z"/><path class="cls-1" d="m633.02,5.05c-18.73,15.96-30.29,46.52-45.97,56.64-10.62,6.85-23.4,7.38-33.48,2.44-2.4-1.17,10.43-19.31,25.53-33.61,1.96-1.85-36.02,25.32-37.55,22.97-9.45-14.64-1.91-34.1,16.45-45.64,19.72-12.39,52.25-6.1,75.01-2.8Z"/><path class="cls-1" d="m574.14,114.91c-12.98,11.06-21,32.25-31.86,39.26-7.36,4.75-16.22,5.11-23.2,1.69-1.66-.81,7.23-13.38,17.7-23.3,1.36-1.28-24.97,17.55-26.02,15.92-6.55-10.15-1.32-23.64,11.4-31.63,13.67-8.59,36.22-4.23,51.99-1.94Z"/><path class="cls-1" d="m446.5,13.48c4.73,18.2-1.43,42.41,3.94,55.61,3.64,8.95,11.42,14.88,19.89,16.21,2.01.32,1.94-16.66-1.25-32.24-.41-2.02,11.45,31.65,13.44,30.84,12.34-5.02,16.15-20.51,9.71-35.78-6.91-16.41-30.04-26.73-45.73-34.64Z"/><ellipse class="cls-1" cx="406.2" cy="195.48" rx="30.41" ry="33.58" transform="translate(-19.25 344.49) rotate(-45)"/><path class="cls-1" d="m296.14,349.62c16.41-7.65,40.41-6.04,51.98-13.43,7.84-5.01,12.1-13.41,11.88-21.66-.05-1.96-16.11,1.07-30.31,6.8-1.84.74,27.98-16.36,26.86-18.1-6.91-10.81-22.24-11.71-35.58-2.96-14.33,9.41-20.08,33.11-24.83,49.35Z"/><path class="cls-1" d="m1471.28,254.51c-33.72-.17-73.04,21.25-98.36,17.74-17.16-2.37-30.9-13.25-36.95-27.38-1.44-3.36,28.09-10.73,56.56-12.09,3.69-.18-60.05-5.89-59.52-9.7,3.27-23.65,28.5-37.13,57.87-32.7,31.56,4.75,59.72,40.37,80.41,64.13Z"/><path class="cls-1" d="m1328.48,313.16c-22.3-10.4-54.91-8.2-70.62-18.25-10.65-6.81-16.44-18.21-16.14-29.43.07-2.67,21.9,1.45,41.18,9.24,2.5,1.01-38.01-22.23-36.5-24.59,9.39-14.68,30.22-15.92,48.34-4.02,19.47,12.78,27.28,44.98,33.74,67.05Z"/><path class="cls-1" d="m1182.99,341.51c-16.41-7.65-40.41-6.04-51.98-13.43-7.84-5.01-12.1-13.41-11.88-21.66.05-1.96,16.11,1.07,30.31,6.8,1.84.74-27.98-16.36-26.86-18.1,6.91-10.81,22.24-11.71,35.58-2.96,14.33,9.41,20.08,33.11,24.83,49.35Z"/><path class="cls-1" d="m1316.56,96.64c-16.6,18.17-47.54,28.66-58.19,43.98-7.22,10.38-8.18,23.13-3.6,33.37,1.09,2.43,19.66-9.75,34.47-24.35,1.92-1.89-26.56,35.13-24.25,36.73,14.31,9.95,34.02,3.09,46.18-14.86,13.07-19.28,7.9-52.01,5.39-74.87Z"/><path class="cls-1" d="m839.36,5.05c18.73,15.96,30.29,46.52,45.97,56.64,10.62,6.85,23.4,7.38,33.48,2.44,2.4-1.17-10.43-19.31-25.53-33.61-1.96-1.85,36.02,25.32,37.55,22.97,9.45-14.64,1.91-34.1-16.45-45.64-19.72-12.39-52.25-6.1-75.01-2.8Z"/><path class="cls-1" d="m1190.38,131.9c-4.02,16.58-19.32,33.28-20.68,46.14-.92,8.71,2.75,16.78,8.95,21.47,1.47,1.12,8.69-12.49,12.82-26.3.54-1.79-4.41,30.2-2.48,30.41,12.01,1.27,21.7-9.48,23.1-24.44,1.51-16.08-12.55-34.23-21.71-47.28Z"/><path class="cls-1" d="m1025.88,13.48c-4.73,18.2,1.43,42.41-3.94,55.61-3.65,8.95-11.42,14.88-19.89,16.21-2.01.32-1.94-16.66,1.25-32.24.41-2.02-11.45,31.65-13.44,30.84-12.34-5.02-16.15-20.51-9.71-35.78,6.91-16.41,30.04-26.73,45.73-34.64Z"/><path class="cls-1" d="m1044.68,175c-13.51,13.51-14.84,34.09-2.96,45.96,11.87,11.87,32.45,10.55,45.96-2.96,13.51-13.51,14.84-34.09,2.96-45.96-11.87-11.87-32.45-10.55-45.96,2.96Z"/><path class="cls-1" d="m652.37,58.32c9.79,16.44,31.72,29.28,37.43,42.61,3.87,9.04,2.61,18.9-2.48,25.98-1.21,1.68-13.44-10.51-22.44-23.95-1.17-1.74,14.72,30.91,12.72,31.77-12.46,5.34-26.39-2.98-32.84-18.55-6.93-16.73,2.13-40.85,7.62-57.87Z"/><path class="cls-1" d="m960.24,236.35c-12.25-3.93-29.01-.65-37.82-4.83-5.97-2.83-9.72-8.36-10.3-14.2-.14-1.39,11.45-.68,21.96,2.09,1.36.36-21.17-9.03-20.54-10.36,3.9-8.23,14.63-10.24,24.8-5.26,10.94,5.35,17.1,21.53,21.9,32.55Z"/><path class="cls-1" d="m900.37,238.25c-7.06-3.82-17.72-3.74-22.65-7.32-3.34-2.42-5-6.25-4.69-9.9.07-.87,7.1.9,13.23,3.81.79.38-11.95-7.98-11.41-8.72,3.34-4.6,10.15-4.6,15.82-.37,6.09,4.54,8.01,15.18,9.69,22.49Z"/><path class="cls-1" d="m858.5,177.99c-1.33,4.29-.12,10.13-1.55,13.22-.97,2.09-2.89,3.42-4.92,3.65-.48.05-.28-3.99.65-7.67.12-.48-3.08,7.42-3.54,7.21-2.89-1.33-3.63-5.07-1.92-8.64,1.83-3.84,7.46-6.04,11.28-7.76Z"/><path class="cls-1" d="m650.27,233.16c9.93,5.4,18.02,18.04,26.02,21.1,5.42,2.07,11.21,1.1,15.27-2.07.97-.75-6.51-7.69-14.66-12.68-1.05-.65,18.59,7.97,19.05,6.76,2.86-7.47-2.37-15.51-11.71-18.95-10.04-3.7-24.06,2.21-33.97,5.85Z"/><path class="cls-1" d="m918.31,157.17c-10.12,5.02-25.12,4.38-32.22,9.17-4.81,3.25-7.34,8.55-7.08,13.69.06,1.22,10.04-.91,18.8-4.7,1.14-.49-17.2,10.63-16.48,11.7,4.47,6.64,14.05,6.97,22.24,1.31,8.8-6.09,12.02-20.96,14.74-31.16Z"/><path class="cls-1" d="m583.82,190.02c17.42,2.87,35.84,17.38,49.21,17.79,9.07.28,17.11-4.13,21.48-10.89,1.04-1.61-13.56-8.01-28.13-11.2-1.89-.41,31.51,2.23,31.57.22.39-12.5-11.45-21.66-27-21.96-16.71-.32-34.37,15.59-47.13,26.05Z"/><path class="cls-1" d="m799.2,187.74c-2.81,10.03-12.24,16.15-21.06,13.68-8.82-2.47-13.69-12.6-10.88-22.63,2.81-10.03,12.24-16.15,21.06-13.68,8.82,2.47,13.69,12.6,10.88,22.63Z"/><path class="cls-1" d="m1328.76,222.04c-138.41-25.07-254.55,12.72-347.37,89.4.85-1.48,1.33-2.31,1.33-2.31,0,0,76.7-188.36-48.97-249.17,0,0,97.3,83.34,0,295.09-.4.87-.76,1.84-1.15,2.69-69,73.63-122.15,169.97-159,274.8-1-57.79-.92-119.17,1.15-179.06,11-35.43,34.01-82.15,103.95-107.28-61.01-.87-89.67,37.57-101.97,62.1,1.57-29.32,3.69-57.95,6.48-85.24,13.57-52.1,46.14-118.63,123.25-115.78-54.96-16.9-109.95,15.34-134.43,52.49-24.98-81.7-86.55-124.24-162.19-124.24,111.37,48.05,133.91,203.04,125.88,369.7-11.74-28.46-37.73-65.12-95.67-73.78,65.45,36.4,85.12,85.42,92.37,124.56-3.67,45.24-9.12,90.62-15.22,134.29-36.49-126.93-95.9-245.59-177.41-332.57-.39-.85-.75-1.83-1.15-2.69-97.3-211.75,0-295.09,0-295.09-125.68,60.81-48.97,249.17-48.97,249.17,0,0,.48.82,1.33,2.31-92.82-76.68-208.95-114.48-347.37-89.4,527.73,23.39,463.86,661.46,453.05,746.15-83.5,11-152.46,31.56-194.65,57.64,87.62-27.1,205.06-43.68,334.17-43.68s246.54,16.58,334.17,43.68c-42.18-26.07-111.15-46.64-194.65-57.64-10.82-84.69-74.68-722.76,453.05-746.15Z"/></svg>