<svg id="Layer_1" height="512" viewBox="0 0 256 256" width="512" xmlns="http://www.w3.org/2000/svg"><g><g><g><g><path d="m202.78 83.036v-66.276c0-1.105-.895-2-2-2h-54.539c-1.105 0-2 .896-2 2v62.955l-12.737 15.265c-6.921 8.295-12.376 17.709-16.131 27.839l-11.597 31.287c-2.045 5.518.6 11.669 6.012 13.98 5.677 2.424 12.239-.282 14.557-6.004l9.959-24.588v85.924c0 5.905 4.787 10.693 10.693 10.693 5.905 0 10.693-4.787 10.693-10.693v7.128c0 5.905 4.787 10.693 10.693 10.693 5.905 0 10.693-4.787 10.693-10.693v-10.693c0 5.905 4.787 10.693 10.693 10.693s10.693-4.787 10.693-10.693v-21.385c0 5.905 4.787 10.693 10.693 10.693s10.693-4.787 10.693-10.693v-51.276-9.838c-.002-19.425-5.958-38.383-17.068-54.318z" fill="#fedbb0"/></g><g><g><g><path d="m219.846 156.548v-19.194c0-19.425-5.956-38.383-17.065-54.318v-66.276c0-1.105-.895-2-2-2h-8v68.276c11.109 15.935 17.065 34.893 17.065 54.318v19.194 41.92c0 4.098-2.308 7.654-5.693 9.449 1.493.792 3.193 1.244 5 1.244 5.905 0 10.693-4.787 10.693-10.693z" fill="#e8c197"/></g><g><path d="m188.46 219.854v-77.355c0-2.761 2.239-5 5-5 2.761 0 5 2.239 5 5v77.355c0 5.905-4.787 10.693-10.693 10.693-1.807 0-3.507-.452-5-1.244 3.386-1.795 5.693-5.351 5.693-9.449z" fill="#e8c197"/></g><g><path d="m167.075 230.547v-88.048c0-2.761 2.239-5 5-5 2.761 0 5 2.239 5 5v87.716c0 5.624-4.203 10.534-9.808 10.989-2.137.173-4.15-.288-5.884-1.208 3.384-1.795 5.692-5.351 5.692-9.449z" fill="#e8c197"/></g><g><path d="m145.69 223.418v-80.919c0-2.761 2.239-5 5-5 2.761 0 5 2.239 5 5v80.586c0 5.624-4.203 10.536-9.809 10.99-2.136.173-4.15-.289-5.884-1.208 3.385-1.795 5.693-5.35 5.693-9.449z" fill="#e8c197"/></g></g></g></g><g><path d="m166.003 97.345c-.589 0-1.172-.259-1.566-.756-.688-.864-.544-2.122.321-2.81 4.643-3.691 6.443-9.935 4.479-15.536-2.544-7.259-10.52-11.096-17.776-8.548-1.046.361-2.185-.184-2.55-1.226-.365-1.043.184-2.184 1.226-2.55 4.524-1.584 9.395-1.315 13.716.763 4.32 2.078 7.573 5.714 9.16 10.237 2.526 7.207.209 15.24-5.767 19.99-.367.294-.807.436-1.243.436z" fill="#e59a5c"/></g><g><g><path d="m160.587 76.752c-4.479-4.479-11.584-4.708-16.345-.712v-33.018l-14.04.001c-6.464 0-12.664 2.569-17.235 7.14l-76.227 76.226c-.781.781-.781 2.047 0 2.829l25.709 25.708c.781.781 2.047.781 2.828 0l31.591-31.591 23.578.345c6.523.096 12.807-2.454 17.42-7.066l22.721-22.721c4.733-4.734 4.733-12.408 0-17.141z" fill="#e59a5c"/></g><g><path d="m143.707 82.816 1.777-1.777c2.521-2.521 6.609-2.521 9.131 0l1.685 1.685c2.521 2.521 2.521 6.609 0 9.131l-1.777 1.777c-.63.63-1.652.63-2.283 0l-8.533-8.533c-.631-.631-.631-1.653 0-2.283z" fill="#fcc171"/></g></g></g><g><path d="m166.383 243.239c-6.33 0-11.593-4.658-12.541-10.726-2.288 2.226-5.409 3.598-8.845 3.598-6.999 0-12.692-5.694-12.692-12.693v-75.659l-6.106 15.074c-1.324 3.27-3.849 5.811-7.109 7.155-3.263 1.345-6.845 1.322-10.086-.063-6.402-2.732-9.521-9.986-7.103-16.514l10.323-27.852-14.539-.213-30.994 30.994c-1.56 1.563-4.1 1.561-5.657 0l-25.708-25.709c-1.56-1.56-1.56-4.097 0-5.656l76.226-76.227c4.981-4.98 11.604-7.725 18.649-7.726l12.04-.001v-24.26c0-2.206 1.794-4 4-4h54.539c2.206 0 4 1.794 4 4v65.65c11.167 16.237 17.065 35.221 17.065 54.942v61.115c0 6.999-5.693 12.692-12.692 12.692-3.36 0-6.42-1.313-8.692-3.451v12.144c0 6.999-5.694 12.693-12.693 12.693-3.36 0-6.42-1.313-8.692-3.452v1.452c-.001 7-5.694 12.693-12.693 12.693zm-8.694-19.821v7.129c0 4.793 3.899 8.692 8.693 8.692 4.793 0 8.692-3.899 8.692-8.692v-10.692c0-1.104.896-2 2-2s2 .896 2 2c0 4.793 3.899 8.692 8.692 8.692 4.794 0 8.693-3.899 8.693-8.693v-21.384c0-1.104.896-2 2-2s2 .896 2 2c0 4.792 3.899 8.691 8.692 8.691s8.692-3.899 8.692-8.692v-61.115c0-19.11-5.777-37.497-16.706-53.174-.234-.335-.359-.734-.359-1.144v-66.275h-54.539v26.261c0 1.104-.896 2-2 2l-14.04.001c-5.976.001-11.595 2.328-15.821 6.554l-76.226 76.227 25.708 25.709 31.592-31.591c.383-.383.896-.572 1.443-.586l18.215.267c.649.01 1.254.334 1.621.87.366.535.45 1.216.225 1.825l-11.308 30.505c-1.676 4.523.486 9.551 4.923 11.444 2.249.962 4.731.977 6.99.044 2.26-.932 4.01-2.693 4.928-4.959l9.96-24.588c.359-.887 1.291-1.401 2.236-1.212.939.183 1.617 1.006 1.617 1.963v85.924c0 4.794 3.899 8.693 8.692 8.693s8.692-3.899 8.692-8.693c0-1.104.896-2 2-2s2.003.894 2.003 1.999z" fill="#422618"/></g></g></svg>