<svg id="Capa_1" enable-background="new 0 0 512.017 512.017" height="512" viewBox="0 0 512.017 512.017" width="512" xmlns="http://www.w3.org/2000/svg"><g><g><path d="m486.645 44.205c-1.039-8.919-8.091-15.971-17.01-17.01-50.4-5.874-97.815 6.992-130.997 40.175s-46.049 80.598-40.175 130.997c1.039 8.919 8.091 15.971 17.01 17.01 50.4 5.874 97.815-6.992 130.998-40.175s46.048-80.597 40.174-130.997z" fill="#00ba66"/><path d="m333.129 213.078c-5.874-50.4 6.993-97.815 40.176-130.998 29.101-29.101 69.148-42.573 112.554-41.486-2.27-7.155-8.55-12.505-16.223-13.4-50.4-5.874-97.814 6.992-130.998 40.175-33.183 33.183-46.049 80.598-40.175 130.998 1.039 8.919 8.091 15.971 17.01 17.01 6.2.723 12.355 1.158 18.444 1.311-.369-1.161-.643-2.364-.788-3.61z" fill="#00a855"/><path d="m162.37 94.124c.739-6.339 5.75-11.35 12.089-12.089 35.819-4.174 69.516 4.969 93.099 28.552s32.727 57.28 28.552 93.099c-.739 6.339-5.75 11.35-12.089 12.089-35.819 4.174-69.516-4.969-93.099-28.552s-32.726-57.28-28.552-93.099z" fill="#00ba66"/><path d="m215.256 166.557c-21.885-21.885-31.326-52.481-29.238-85.398-3.822.138-7.677.424-11.559.877-6.339.739-11.35 5.75-12.089 12.089-4.175 35.819 4.969 69.516 28.552 93.099s57.28 32.727 93.099 28.552c6.338-.739 11.35-5.75 12.089-12.089.301-2.58.524-5.146.686-7.701-31.443 1.136-60.513-8.402-81.54-29.429z" fill="#00a855"/><path d="m266.304 9.389c1.507-1.909 4.135-2.534 6.339-1.506 12.457 5.805 21.563 15.507 24.502 27.873s-.83 25.128-9.344 35.916c-1.507 1.909-4.135 2.534-6.339 1.506-12.457-5.805-21.563-15.507-24.502-27.873-2.938-12.366.83-25.127 9.344-35.916z" fill="#00ba66"/><path d="m377.505 354.537c3.407.346 6.823-.57 9.618-2.58l62.705-45.099c3.374-2.427 7.149-3.85 10.984-4.337 1.012-.129 1.752-1.01 1.729-2.03-.178-7.941-3.74-16.728-10.275-21.402-10.956-7.834-26.092-5.166-33.807 5.958l-44.243 63.796c-1.448 2.087-3.408 3.727-5.662 4.783h.001z" fill="#ffbd86"/><path d="m450.096 285.048c.737-1.063 1.542-2.047 2.405-2.953.832-.874.764-2.288-.217-2.992-.006-.005-.013-.009-.019-.014-10.956-7.834-26.092-5.166-33.807 5.958l-44.243 63.796c-1.448 2.087-3.408 3.727-5.662 4.783h.001l8.951.91c3.407.346 6.823-.57 9.617-2.58l32.783-23.578c.185-.133.345-.296.475-.483z" fill="#f6a96c"/><path d="m484.149 312.673c-7.578-11.486-23.147-14.345-34.321-6.472l-62.098 43.751c-3.187 2.245-7.076 3.269-10.956 2.882l-32.585-3.245c-3.133-.312-4.254-4.393-1.658-6.174 6.07-4.165 10.39-10.799 11.348-18.662 1.735-14.233-8.202-27.266-22.448-29.444l-107.811-16.484c-12.194-1.865-24.638 1.059-34.706 8.152l-57.228 40.321c-.904.637-1.118 1.888-.476 2.79l63.948 89.809c.594.834 1.718 1.074 2.608.569 23.15-13.138 49.475-19.976 76.301-19.649l97.148 1.184c16.678.415 33.045-4.544 46.659-14.136l59.525-41.939c10.738-7.566 13.968-22.312 6.75-33.253z" fill="#fed2a4"/><path d="m179.763 315.581 40.6-28.605c2.129-1.5 4.366-2.811 6.684-3.929 1.781-.859 1.419-3.482-.536-3.781l-2.89-.442c-12.194-1.865-24.638 1.059-34.706 8.152l-57.228 40.321c-.904.637-1.118 1.888-.476 2.79l63.948 89.809c.594.834 1.718 1.075 2.609.569 6.302-3.575 12.84-6.679 19.559-9.302 1.215-.475 1.67-1.953.913-3.016l-43.784-61.49c-7.148-10.04-4.768-23.978 5.307-31.076z" fill="#ffbd86"/><path d="m334.26 348.624c.968.086 1.953-.483 2.169-1.431.094-.41.373-.784.86-.978 5.667-2.259 10.432-6.418 13.424-11.773-.463-.129-.941-.223-1.437-.267l-72.465-6.454c-4.348-.387-8.188 2.805-8.577 7.129-.389 4.325 2.82 8.144 7.167 8.532z" fill="#ffbd86"/><path d="m86.864 333.255c-.637-.9-1.883-1.112-2.783-.475l-55.167 39.075c-5.074 3.594-6.368 10.489-2.89 15.399l79.774 112.629c3.478 4.911 10.411 5.978 15.486 2.384l55.167-39.075c.9-.637 1.112-1.883.475-2.783z" fill="#22a7ff"/><path d="m59.703 387.254c-3.478-4.911-2.185-11.805 2.89-15.399l33.077-22.66c.92-.63 1.145-1.891.501-2.8l-9.306-13.139c-.637-.9-1.883-1.112-2.783-.475l-55.167 39.075c-5.074 3.594-6.368 10.489-2.89 15.399l79.774 112.629c3.478 4.911 10.411 5.978 15.486 2.384l11.611-8.224c.9-.637 1.112-1.883.475-2.783z" fill="#0094fd"/><path d="m175.94 461.109c.637.9 1.883 1.112 2.783.475l22.63-16.029c4.975-3.524 6.188-10.361 2.71-15.272l-79.774-112.629c-3.478-4.911-10.331-6.035-15.305-2.512l-22.63 16.028c-.9.637-1.112 1.883-.475 2.783z" fill="#d9edff"/><g><path d="m128.307 326.837c.92-.63 1.145-1.891.501-2.8l-4.52-6.381c-3.478-4.911-10.331-6.035-15.306-2.512l-22.63 16.028c-.9.637-1.112 1.883-.475 2.783l9.332 13.175c.63.89 1.858 1.109 2.757.493z" fill="#b4dbff"/></g></g><g><path d="m278.303 80.096c5.373 2.504 11.707 1.012 15.395-3.658 21.333-27.032 13.341-60.685-17.879-75.233-5.383-2.509-11.714-1.005-15.395 3.658-21.335 27.035-13.341 60.683 17.879 75.233zm-7.196-64.503c20.507 10.492 25.516 31.502 11.908 50.113-20.502-10.488-25.52-31.494-11.908-50.113z"/><path d="m473.088 339.888-59.534 41.945c-12.22 8.608-27.182 13.14-42.257 12.77l-45.188-.551c-.031 0-.063 0-.094 0-4.099 0-7.447 3.298-7.497 7.409-.051 4.142 3.266 7.54 7.407 7.591l45.094.549c18.177.451 36.341-5.055 51.173-15.505l59.534-41.945c14.079-9.919 17.978-29.441 8.69-43.519-4.776-7.239-12.104-12.114-20.633-13.727-.099-.019-.197-.031-.296-.048-5.306-30.929-41.626-36.449-57.196-13.997l-44.159 63.675-14.207-1.415c3.942-4.84 6.583-10.796 7.384-17.366 2.239-18.372-10.395-34.963-28.763-37.771l-107.827-16.487c-14.188-2.172-28.45 1.181-40.164 9.435l-51.503 36.286-2.697-3.807c-5.863-8.278-17.421-10.207-25.763-4.297-9.527 6.748-72.167 51.116-80.08 56.721-8.434 5.973-10.575 17.528-4.675 25.857l79.786 112.646c5.861 8.274 17.461 10.177 25.943 4.169 7.889-5.588 70.576-49.989 80.079-56.72 8.363-5.92 10.375-17.431 4.496-25.729l-1.833-2.588c20.359-10.133 42.902-15.325 65.641-15.05l16.973.207c4.154.053 7.54-3.266 7.591-7.408s-3.266-7.54-7.407-7.591l-16.974-.207c-25.926-.315-51.573 5.773-74.597 17.662-9.248-13.057-51.967-73.369-57.814-81.624l51.473-36.265c8.529-6.011 18.918-8.449 29.257-6.87l107.827 16.487c10.303 1.575 17.393 10.855 16.14 21.128-1.117 9.175-8.664 16.214-17.944 16.738-.189.011-.374.034-.558.058l-40.232-3.214c-4.147-.323-7.744 2.75-8.074 6.879-.329 4.129 2.75 7.744 6.88 8.073 60.579 4.839 41.409 3.129 90.27 7.994 5.347.533 10.641-1.02 14.673-3.86l62.716-44.187c7.551-5.323 18.393-3.641 23.745 4.472 4.872 7.382 2.715 17.698-4.806 22.997zm-356.187 156.378c-1.668 1.179-3.933.954-5.033-.599l-79.787-112.647c-1.047-1.476-.641-3.709 1.104-4.946l50.685-35.9c1.813 2.56 81.902 115.633 83.715 118.192zm81.005-61.54c1.076 1.52.68 3.683-.925 4.819l-17.155 12.151-83.715-118.192 17.155-12.15c1.591-1.13 3.77-.803 4.853.727 2.613 3.689 78.122 110.294 79.787 112.645zm247.605-134.568-55.432 39.054 34.54-49.805c7.557-10.899 25.689-10.061 29.754 6.369-3.278 1.026-6.342 2.606-8.862 4.382z"/><path d="m494.103 43.457c-1.449-12.441-11.15-22.143-23.591-23.592-91.358-10.641-159.595 38.791-176.701 115.676-19.252-41.713-63.214-67.479-120.212-60.836-9.845 1.147-17.521 8.825-18.67 18.67-9.622 82.568 48.756 139.433 129.969 129.97 5.728-.667 10.71-3.555 14.111-7.784 4.125 3.996 9.534 6.678 15.604 7.386 42.47 4.948 84.692-2.51 119.22-27.135 3.372-2.405 4.156-7.089 1.751-10.461s-7.088-4.158-10.462-1.751c-29.232 20.849-66.787 29.304-108.611 24.465l36.415-36.415h47.419c4.143 0 7.5-3.358 7.5-7.5s-3.357-7.5-7.5-7.5h-32.419l28.658-28.658h37.598c4.143 0 7.5-3.358 7.5-7.5s-3.357-7.5-7.5-7.5h-22.598l28.844-28.844c2.929-2.929 2.929-7.678 0-10.606-2.929-2.929-7.677-2.929-10.607 0l-28.844 28.844v-22.6c0-4.142-3.357-7.5-7.5-7.5s-7.5 3.358-7.5 7.5v37.598l-28.658 28.658v-32.419c0-4.142-3.357-7.5-7.5-7.5s-7.5 3.358-7.5 7.5v47.419l-36.416 36.415c-11.977-103.49 59.157-174.786 162.873-162.693 5.499.641 9.788 4.929 10.429 10.428 5.244 45.004-5.367 86.148-29.88 115.854-2.636 3.195-2.184 7.922 1.012 10.558 3.193 2.636 7.921 2.186 10.559-1.011 27.136-32.886 38.929-78.037 33.207-127.136zm-204.979 154.836-21.998-21.998v-32.801c0-4.142-3.357-7.5-7.5-7.5s-7.5 3.358-7.5 7.5v17.801l-16.027-16.027v-25.822c0-4.142-3.357-7.5-7.5-7.5s-7.5 3.358-7.5 7.5v10.822l-16.795-16.795c-2.93-2.929-7.678-2.929-10.607 0s-2.929 7.678 0 10.606l16.795 16.795h-10.822c-4.143 0-7.5 3.358-7.5 7.5s3.357 7.5 7.5 7.5h25.821l16.028 16.028h-17.801c-4.143 0-7.5 3.358-7.5 7.5s3.357 7.5 7.5 7.5h32.801l21.998 21.998c-69.873 5.815-116.918-43.161-108.69-113.789.34-2.904 2.604-5.169 5.508-5.507 70.917-8.267 119.578 39.128 113.789 108.689z"/></g></g></svg>